inDegrees=no
num_controls=7
num_derivatives=13
num_iterations=123
num_multipliers=7
num_parameters=0
num_slacks=7
num_states=26
objective=5.901819
objective_accelerations=0.756642
objective_balance=0.022455
objective_effort=0.514712
objective_height=4.583627
objective_ligament=0.024383
solver_duration=1041.197684
status=Solve_Succeeded
success=true
DataType=double
version=3
OpenSimVersion=4.4-2022-07-23-0e9fedc
endheader
time	/jointset/ground_pelvis/pelvis_tilt/value	/jointset/ground_pelvis/pelvis_tx/value	/jointset/ground_pelvis/pelvis_ty/value	/jointset/hip_r/hip_flexion_r/value	/jointset/hip_r/hip_adduction_r/value	/jointset/hip_r/hip_rotation_r/value	/jointset/back/lumbar_extension/value	/jointset/patellofemoral_r/patellar_flexion_r/value	/jointset/knee_r/knee_flexion_r/value	/jointset/knee_r/knee_adduction_r/value	/jointset/knee_r/knee_rotation_r/value	/jointset/ankle_r/ankle_angle_r/value	/jointset/subtalar_r/subtalar_angle_r/value	/jointset/ground_pelvis/pelvis_tilt/speed	/jointset/ground_pelvis/pelvis_tx/speed	/jointset/ground_pelvis/pelvis_ty/speed	/jointset/hip_r/hip_flexion_r/speed	/jointset/hip_r/hip_adduction_r/speed	/jointset/hip_r/hip_rotation_r/speed	/jointset/back/lumbar_extension/speed	/jointset/patellofemoral_r/patellar_flexion_r/speed	/jointset/knee_r/knee_flexion_r/speed	/jointset/knee_r/knee_adduction_r/speed	/jointset/knee_r/knee_rotation_r/speed	/jointset/ankle_r/ankle_angle_r/speed	/jointset/subtalar_r/subtalar_angle_r/speed	/forceset/tau_hip_flexion_r	/forceset/tau_hip_adduction_r	/forceset/tau_hip_rotation_r	/forceset/tau_knee_flexion_r	/forceset/tau_ankle_angle_r	/forceset/tau_subtalar_angle_r	/forceset/tau_lumbar_extension	lambda_cid13_p0	lambda_cid14_p0	lambda_cid14_p1	lambda_cid14_p2	lambda_cid14_p3	lambda_cid14_p4	lambda_cid14_p5	/jointset/ground_pelvis/pelvis_tilt/accel	/jointset/ground_pelvis/pelvis_tx/accel	/jointset/ground_pelvis/pelvis_ty/accel	/jointset/hip_r/hip_flexion_r/accel	/jointset/hip_r/hip_adduction_r/accel	/jointset/hip_r/hip_rotation_r/accel	/jointset/back/lumbar_extension/accel	/jointset/patellofemoral_r/patellar_flexion_r/accel	/jointset/knee_r/knee_flexion_r/accel	/jointset/knee_r/knee_adduction_r/accel	/jointset/knee_r/knee_rotation_r/accel	/jointset/ankle_r/ankle_angle_r/accel	/jointset/subtalar_r/subtalar_angle_r/accel	gamma_cid13_p0	gamma_cid14_p0	gamma_cid14_p1	gamma_cid14_p2	gamma_cid14_p3	gamma_cid14_p4	gamma_cid14_p5
0	-0.005656483390595646	0.1309532239993661	0.933460159699192	0.1934208783645156	-0.227307337355925	-0.2328456089339415	-0.2903791543005566	0.2311793314021865	0.2311793314021609	0.1314336533442991	0.1642194069176484	0.08934340440958972	0.06481898081982125	0	0	0	0	0	0	0	0	0	0	0	0	0	0.1202813970472864	-0.07207710650943189	0.003742571071259112	-0.2566224407531377	0.1330301383135765	-0.08399424115881071	-0.03964922008340588	-29.64842236914154	-3.137252784473008	-32.55963452196949	0.5088712371258363	1.255996467598848	-605.0951459418079	50.27128861168491	-2.456391252634438	-2.05218522510184	-0.967275479230194	11.4937246032244	0.1209656936461323	2.284337442917618	-6.632408823406317	11.31552175897927	11.31552175897906	-3.141803584117389	0.5763477072148967	3.064182259751062	1.011166511562265	5.523573787588702e-08	3.029018460102535e-08	-4.0508675787936e-07	3.051180470642636e-07	1.856858691994879e-08	1.884646382631664e-07	-3.691445138185724e-07
0.01	-0.005772258457212323	0.1308519986191377	0.9334131492868574	0.1939810710057309	-0.2272990146756528	-0.2327314726343291	-0.2907126766883921	0.2317348099156072	0.2317348099155934	0.1312744622929747	0.1642442701211994	0.08949452851194456	0.06487174920950202	-0.02305748346138545	-0.02013147691722807	-0.009377258946279839	0.1115140402476004	0.001646841380303936	0.02271618549078688	-0.06625009859343109	0.110596861451232	0.1105968614512258	-0.03166622323941883	0.004945124912607852	0.03011144332369738	0.01050219301227826	0.1155757223863632	-0.07793982580132749	0.00417431143591753	-0.2522917910255055	0.1264063157604477	-0.07664938981509123	-0.03540733233345218	-29.65459105639737	-4.926182038594138	-29.5000648272873	-0.1878576709048854	1.379741015385467	-606.7267964285508	56.23252197985367	-2.215799616116929	-1.976585343418725	-0.9191898812425007	10.90157099221291	0.1838821298773064	2.248660333256492	-6.55315353069807	10.85693110698953	10.85693110698856	-3.153269250381946	0.4495279613806851	2.967626346059501	1.061995352857642	7.495256730305271e-08	2.085492270445488e-08	-5.170033409412307e-07	3.970715444682342e-07	4.061568024988625e-08	6.963065893001258e-08	-4.80313510323754e-07
0.02	-0.006115682903082849	0.1305528671860582	0.9332731185292782	0.1956406695007373	-0.2272747558276176	-0.2323934942335611	-0.2916950686928348	0.2333812895972659	0.2333812895972626	0.1308037614975713	0.1643177711896393	0.0899433672430287	0.06502798946066506	-0.04552987585176525	-0.03958121057024835	-0.01860406904892599	0.2198811707625906	0.003187233546849709	0.04476842022545205	-0.1297739233222528	0.2182002336542494	0.2182002336542378	-0.06230194873993131	0.009727572949097554	0.05954292574261449	0.02069437229642862	0.1108700477251973	-0.0838025450934017	0.004606051800967462	-0.2479611412980209	0.1197824932072274	-0.06930453847162552	-0.03116544458360411	-29.67254385155883	-6.626146089304862	-26.4450862216181	-0.8608165490365453	1.569876223518818	-606.908368185009	61.86016902037365	-2.33937303843282	-1.915836572260773	-0.9371857105034335	10.86434265670247	0.09967585089447109	2.151547291693281	-6.087154050484233	10.71682390933648	10.71682390933645	-2.935704036336082	0.5438123319913385	2.928190078794486	0.9491637659364955	9.466939673021839e-08	1.14196608078844e-08	-6.289199240031013e-07	4.890250418722049e-07	6.266277357982371e-08	-4.920332040314127e-08	-5.914825068289357e-07
0.03	-0.006681448768974415	0.1300626066259112	0.9330412047261909	0.1983688156609643	-0.2272358497462703	-0.2318389980601336	-0.2932987719644861	0.2360888367388886	0.2360888367388577	0.1300324247156934	0.164438748715116	0.09068286522261687	0.06528429476415058	-0.06753089834494208	-0.0583603477316385	-0.02778159436417151	0.3252264272315826	0.004574940664522892	0.06602038863218831	-0.190536542613769	0.3227910460656067	0.322791046065626	-0.09177149170801302	0.01440533229984401	0.08822334521427926	0.0305108930643337	0.1057511143334031	-0.07954038960029686	0.004949165818458593	-0.2439005691617699	0.1155505483537331	-0.06942321165458565	-0.02678745980747281	-29.70144043794762	-7.972753670881803	-26.71748116476995	-0.8344387517686842	1.707833847316618	-607.0846039902045	60.25743977247459	-2.116602189251571	-1.842356608759038	-0.908481682120608	10.29137501755743	0.1554627714898218	2.095555981620229	-6.006287608679585	10.25246860316165	10.25246860316586	-2.923542792816872	0.4204636056513916	2.81797797836803	0.9894866610435016	9.601049721413582e-08	2.540009095852271e-10	-6.050983591708988e-07	5.113791929694539e-07	7.135881086452668e-08	-1.545592627567155e-07	-5.994057251245297e-07
0.04	-0.007464451926693099	0.1293878738300119	0.9327174265219355	0.2021347659609981	-0.2271836376678931	-0.231075275329372	-0.2954971957770919	0.2398267437438521	0.2398267437438513	0.1289721998312783	0.1646046450078451	0.0917051694163111	0.06563708336108065	-0.08897733421779586	-0.07647565772071856	-0.0369769492825683	0.4274419987228908	0.00584843295356972	0.08661373169718481	-0.2487180315129865	0.4242722063220304	0.4242722063220751	-0.1200795693070343	0.0187113264120039	0.1161041685665731	0.03999103098528879	0.1006321809417423	-0.07527823410702454	0.00529227983585611	-0.239839997025377	0.1113186035003573	-0.06954188483730563	-0.0224094750313364	-29.73982593823239	-9.238774411292173	-26.9955168678235	-0.7846008134016973	1.898195984285047	-605.9486617601148	58.34877147543737	-2.22845571436774	-1.783071137799271	-0.9407516311336626	10.2384056611658	0.07683288516919357	2.019822223345311	-5.570927972024295	10.0948934783499	10.09489347834875	-2.703410962523983	0.4694592842740864	2.768270854919755	0.8818871965463255	9.697271668891411e-08	-1.094733729802795e-08	-5.784780696398494e-07	5.322983059985231e-07	7.977956864314233e-08	-2.596373074406077e-07	-6.052001644879673e-07
0.05	-0.008459658117281107	0.128535264410625	0.932301281812958	0.2069080144997608	-0.227119493396744	-0.2301099201565595	-0.2982640314493629	0.2445643413472054	0.2445643413472001	0.1276351002741591	0.1648127071784043	0.09300224189696822	0.06608273770620224	-0.1099646510559273	-0.09393821941763152	-0.04627657356610081	0.5266918662087363	0.006974319821357441	0.1063248732901492	-0.3042315960973347	0.5227361536963462	0.5227361536963416	-0.1471686828451786	0.02283078889790979	0.1431766682492784	0.04910288111621941	0.09482138016277991	-0.07291717529981151	0.005699915926249982	-0.2355666251661959	0.10594898002854	-0.0672600305956141	-0.01764854308244153	-29.78610798404267	-10.74558650570186	-26.23369103867672	-0.9456334706069507	2.162688546316831	-604.9548766092651	58.48486654643145	-2.01897185353489	-1.711631652324568	-0.9283077614518769	9.690905304115113	0.1295721192771332	1.92699811082583	-5.478944674403069	9.645451867257764	9.645451867251035	-2.685949134309933	0.3727433452412196	2.656695264859921	0.9202642377140899	8.777849349873149e-08	-2.092401187080364e-08	-4.785823437707192e-07	5.165769123797048e-07	7.926937198778625e-08	-3.374895085913504e-07	-5.553637268382333e-07
